<svg xmlns="http://www.w3.org/2000/svg" viewBox="0 0 1422.8 821.76"><defs><style>.cls-1,.cls-14,.cls-2,.cls-8{fill:none;}.cls-1{stroke:#4db3f9;}.cls-1,.cls-11,.cls-12,.cls-14,.cls-15,.cls-16,.cls-18,.cls-19,.cls-2,.cls-21,.cls-5,.cls-7,.cls-8,.cls-9{stroke-linecap:round;stroke-linejoin:round;}.cls-2{stroke:#b3defc;}.cls-12,.cls-19,.cls-3{fill:#b3defc;}.cls-11,.cls-4,.cls-9{fill:#4db3f9;}.cls-5{stroke:#57abf8;}.cls-21,.cls-6{fill:#fff;}.cls-10,.cls-7{fill:#0092f6;}.cls-7{stroke:#71ccff;}.cls-15,.cls-16,.cls-18,.cls-19,.cls-21,.cls-8,.cls-9{stroke:#000;}.cls-11,.cls-12,.cls-14{stroke:#fff;}.cls-13,.cls-18{fill:#0075c5;}.cls-16{fill:#007ff5;}.cls-17{fill:#005894;}.cls-20{fill:#2466ee;}</style></defs><title>Asset 1</title><g id="Layer_2" data-name="Layer 2"><g id="Layer_22" data-name="Layer 22"><path class="cls-1" d="M179.93,477,830.25,151.82m209.44-34.45-903,451.5m1043.54-451.5L12.7,701.14M63,746.27l1257.8-628.9m85.42,27.57-1143.9,572m1160-509.72L354.77,740.94l-158.4,79.2m140.56,0,1049.59-524.8m-24.92,82.74L477.48,820.14m772.39-315.92L618,820.14"/><path class="cls-1" d="M1154.74,478.09,508.28,152.94m-208.2-34.45L1197.72,570M160.36,118.49,1171.59,627.12m26.13,83.42L20.64,118.49m-4.15,68L1072.85,718M.5,248.7,980.94,742.06m17.74,79.2L60.08,349.16M24.64,401.61,859,821.26M91.15,505.34,719.24,821.26"/><polyline class="cls-2" points="666.89 161 596.47 125.26 526.05 161"/><line class="cls-2" x1="596.47" y1="35.93" x2="596.47" y2="125.26"/><polygon class="cls-2" points="666.89 161.13 666.89 71.67 596.47 107.41 596.47 196.87 666.89 161.13"/><polygon class="cls-2" points="526.05 161.13 526.05 71.67 596.47 107.41 596.47 196.87 526.05 161.13"/><polygon class="cls-2" points="526.05 71.67 596.47 107.41 666.89 71.67 596.47 35.93 526.05 71.67"/><polygon class="cls-3" points="570.9 94.25 666.89 71.49 638.56 57.11 542.57 79.87 570.9 94.25"/><polygon class="cls-3" points="596.47 35.93 544.59 62.26 615.31 45.49 596.47 35.93"/><polygon class="cls-3" points="530.8 163.53 554.63 175.63 589.31 103.78 565.47 91.68 530.8 163.53"/><polygon class="cls-3" points="526.05 121.43 545.34 81.46 537.26 77.36 526.05 101.66 526.05 121.43"/><polygon class="cls-3" points="596.47 150.33 666.89 130.08 666.89 116.4 596.47 136.64 596.47 150.33"/><polygon class="cls-3" points="596.47 128.59 666.89 108.34 666.89 87.17 596.47 107.41 596.47 128.59"/><path class="cls-3" d="M1131.61,238a1.51,1.51,0,0,1-.68-.16l-4-2a1.5,1.5,0,0,1,1.36-2.68l4,2a1.5,1.5,0,0,1-.68,2.84Zm-11.12-5.64a1.51,1.51,0,0,1-.68-.16l-7.14-3.62a1.5,1.5,0,0,1,1.36-2.68l7.13,3.62a1.5,1.5,0,0,1-.67,2.84Zm-14.27-7.24a1.51,1.51,0,0,1-.68-.16l-7.14-3.62a1.5,1.5,0,0,1,1.36-2.68l7.14,3.62a1.5,1.5,0,0,1-.68,2.84ZM1092,217.83a1.51,1.51,0,0,1-.68-.16l-7.14-3.62a1.5,1.5,0,0,1,1.36-2.67l7.14,3.62a1.49,1.49,0,0,1,.66,2A1.52,1.52,0,0,1,1092,217.83Zm-14.27-7.24a1.51,1.51,0,0,1-.68-.16l-7.13-3.62a1.5,1.5,0,1,1,1.35-2.67l7.14,3.62a1.49,1.49,0,0,1,.66,2A1.52,1.52,0,0,1,1077.68,210.59Zm-14.27-7.23a1.52,1.52,0,0,1-.68-.17l-7.13-3.62a1.5,1.5,0,0,1,1.35-2.67l7.14,3.62a1.5,1.5,0,0,1-.68,2.84Zm-14.27-7.24a1.51,1.51,0,0,1-.68-.16l-7.13-3.62a1.5,1.5,0,0,1,1.36-2.68l7.13,3.62a1.5,1.5,0,0,1-.68,2.84ZM842,188.88a1.51,1.51,0,0,1-1.35-.83,1.49,1.49,0,0,1,.68-2l7.15-3.58a1.5,1.5,0,1,1,1.34,2.68l-7.15,3.58A1.5,1.5,0,0,1,842,188.88Zm192.91,0a1.51,1.51,0,0,1-.68-.16l-7.13-3.62a1.5,1.5,0,0,1,1.36-2.68l7.13,3.62a1.5,1.5,0,0,1-.68,2.84Zm-178.6-7.16a1.5,1.5,0,0,1-.67-2.84l7.15-3.57a1.5,1.5,0,1,1,1.34,2.68l-7.15,3.58A1.63,1.63,0,0,1,856.27,181.72Zm164.33-.08a1.51,1.51,0,0,1-.68-.16l-7.13-3.62a1.5,1.5,0,0,1,1.36-2.68l7.13,3.62a1.5,1.5,0,0,1-.68,2.84Zm-150-7.07a1.5,1.5,0,0,1-.67-2.84l7.15-3.58a1.51,1.51,0,0,1,2,.67,1.49,1.49,0,0,1-.68,2l-7.15,3.58A1.5,1.5,0,0,1,870.58,174.57Zm135.75-.17a1.44,1.44,0,0,1-.67-.16l-7.14-3.62a1.5,1.5,0,0,1,1.36-2.68l7.13,3.62a1.5,1.5,0,0,1-.68,2.84Zm-121.44-7a1.5,1.5,0,0,1-.67-2.84l7.15-3.58a1.52,1.52,0,0,1,2,.68,1.5,1.5,0,0,1-.67,2l-7.16,3.58A1.59,1.59,0,0,1,884.89,167.41Zm107.17-.25a1.47,1.47,0,0,1-.67-.16l-7.14-3.62a1.5,1.5,0,1,1,1.36-2.67l7.13,3.62a1.5,1.5,0,0,1-.68,2.83Zm-92.86-6.9a1.5,1.5,0,0,1-.67-2.84l7.15-3.58a1.5,1.5,0,1,1,1.35,2.68l-7.16,3.58A1.47,1.47,0,0,1,899.2,160.26Zm78.6-.33a1.52,1.52,0,0,1-.68-.17L970,156.14a1.5,1.5,0,1,1,1.36-2.67l7.13,3.62a1.5,1.5,0,0,1-.67,2.84Zm-64.29-6.83a1.5,1.5,0,0,1-.67-2.84l7.15-3.58a1.5,1.5,0,1,1,1.35,2.69l-7.16,3.57A1.44,1.44,0,0,1,913.51,153.1Zm50-.41a1.4,1.4,0,0,1-.68-.17l-7.14-3.61a1.5,1.5,0,0,1,1.36-2.68l7.14,3.62a1.5,1.5,0,0,1-.68,2.84ZM927.82,146a1.5,1.5,0,0,1-.67-2.84l7.16-3.58a1.5,1.5,0,1,1,1.34,2.68l-7.16,3.58A1.44,1.44,0,0,1,927.82,146Zm21.44-.5a1.51,1.51,0,0,1-.68-.16l-7.14-3.62A1.5,1.5,0,0,1,942.8,139l7.14,3.62a1.5,1.5,0,0,1-.68,2.84Z"/><polygon class="cls-4" points="456.5 268.39 526.92 304.13 597.34 268.39 526.92 232.65 456.5 268.39"/><polygon points="456.5 268.39 526.92 304.13 526.92 232.65 456.5 268.39"/><polygon class="cls-4" points="246.85 583.85 317.27 619.59 387.69 583.85 317.27 548.11 246.85 583.85"/><polygon points="246.85 583.85 317.27 619.59 317.27 548.11 246.85 583.85"/><polygon class="cls-4" points="947.92 655.57 1018.34 691.31 1088.76 655.57 1018.34 619.83 947.92 655.57"/><polygon points="947.92 655.57 1018.34 691.31 1018.34 619.83 947.92 655.57"/><polygon points="806.75 374.08 831.02 373.44 901.44 337.7 831.02 301.96 806.75 374.08"/><polygon class="cls-5" points="877.17 338.34 877.17 248.88 806.75 284.62 806.75 374.08 877.17 338.34"/><polygon class="cls-5" points="736.33 338.34 736.33 248.88 806.75 284.62 806.75 374.08 736.33 338.34"/><polygon class="cls-5" points="736.33 248.88 806.75 284.62 877.17 248.88 806.75 213.14 736.33 248.88"/><polygon class="cls-2" points="877.17 248.51 877.17 159.05 806.75 194.8 806.75 284.25 877.17 248.51"/><polygon class="cls-2" points="736.33 248.51 736.33 159.05 806.75 194.8 806.75 284.25 736.33 248.51"/><polygon class="cls-2" points="736.33 159.05 806.75 194.8 877.17 159.05 806.75 123.31 736.33 159.05"/><line class="cls-1" x1="806.75" y1="123.31" x2="806.75" y2="194.8"/><circle class="cls-3" cx="877.26" cy="159.05" r="4.2"/><circle class="cls-3" cx="806.75" cy="194.8" r="4.2"/><circle class="cls-3" cx="806.75" cy="123.31" r="4.2"/><circle class="cls-3" cx="736.33" cy="159.05" r="4.2"/><ellipse class="cls-1" cx="845.21" cy="311.29" rx="8.1" ry="5.01" transform="translate(204.62 944.48) rotate(-64.89)"/><line class="cls-1" x1="845.21" y1="311.29" x2="906.94" y2="343.12"/><ellipse class="cls-2" cx="772.14" cy="221.65" rx="5.01" ry="8.1" transform="translate(-21.08 348.67) rotate(-25.11)"/><ellipse class="cls-2" cx="841.96" cy="186" rx="5.01" ry="8.1" transform="translate(0.65 374.93) rotate(-25.11)"/><ellipse class="cls-2" cx="773.45" cy="186" rx="8.1" ry="5.01" transform="translate(276.76 807.39) rotate(-64.89)"/><path class="cls-6" d="M526.92,429.79a1.5,1.5,0,0,1-1.5-1.5v-8a1.5,1.5,0,0,1,3,0v8A1.5,1.5,0,0,1,526.92,429.79Zm0-16a1.5,1.5,0,0,1-1.5-1.5v-8a1.5,1.5,0,0,1,3,0v8A1.5,1.5,0,0,1,526.92,413.79Zm0-16a1.5,1.5,0,0,1-1.5-1.5v-8a1.5,1.5,0,0,1,3,0v8A1.5,1.5,0,0,1,526.92,397.79Zm0-16a1.5,1.5,0,0,1-1.5-1.5v-8a1.5,1.5,0,0,1,3,0v8A1.5,1.5,0,0,1,526.92,381.79Zm0-16a1.5,1.5,0,0,1-1.5-1.5v-8a1.5,1.5,0,0,1,3,0v8A1.5,1.5,0,0,1,526.92,365.79Zm0-16a1.5,1.5,0,0,1-1.5-1.5V341a1.5,1.5,0,0,1,.84-1.35l.66-.32a1.5,1.5,0,0,1,1.5,2.59v6.34A1.5,1.5,0,0,1,526.92,349.79Zm7.85-11.09a1.5,1.5,0,0,1-.66-2.85l7.2-3.5a1.5,1.5,0,0,1,1.31,2.7l-7.19,3.5A1.55,1.55,0,0,1,534.77,338.7Zm14.39-7a1.5,1.5,0,0,1-.66-2.85l7.19-3.5a1.5,1.5,0,1,1,1.32,2.7l-7.2,3.5A1.51,1.51,0,0,1,549.16,331.7Zm14.38-7a1.5,1.5,0,0,1-.65-2.85l7.19-3.5a1.5,1.5,0,0,1,1.31,2.69l-7.19,3.51A1.55,1.55,0,0,1,563.54,324.7Zm14.39-7a1.5,1.5,0,0,1-.66-2.84l7.2-3.51a1.5,1.5,0,0,1,1.31,2.7l-7.19,3.5A1.58,1.58,0,0,1,577.93,317.69Zm14.39-7a1.5,1.5,0,0,1-.66-2.85l7.19-3.5a1.5,1.5,0,1,1,1.31,2.7l-7.19,3.5A1.51,1.51,0,0,1,592.32,310.69Zm14.38-7a1.5,1.5,0,0,1-.66-2.85l7.2-3.5a1.5,1.5,0,1,1,1.31,2.69l-7.19,3.51A1.55,1.55,0,0,1,606.7,303.69Zm14.39-7a1.48,1.48,0,0,1-1.35-.84,1.5,1.5,0,0,1,.69-2l7.19-3.51a1.5,1.5,0,0,1,1.32,2.7l-7.2,3.5A1.38,1.38,0,0,1,621.09,296.68Zm14.38-7a1.5,1.5,0,0,1-.65-2.85l7.19-3.5a1.5,1.5,0,0,1,1.31,2.7l-7.19,3.5A1.55,1.55,0,0,1,635.47,289.68Zm14.39-7a1.5,1.5,0,0,1-.66-2.85l7.2-3.5a1.5,1.5,0,0,1,1.31,2.7l-7.19,3.5A1.58,1.58,0,0,1,649.86,282.68Zm14.39-7a1.5,1.5,0,0,1-.66-2.85l7.19-3.5a1.5,1.5,0,1,1,1.31,2.69l-7.19,3.5A1.39,1.39,0,0,1,664.25,275.68Zm14.38-7a1.5,1.5,0,0,1-.66-2.85l7.2-3.5a1.5,1.5,0,0,1,1.31,2.7l-7.19,3.5A1.55,1.55,0,0,1,678.63,268.67Zm14.39-7a1.5,1.5,0,0,1-.66-2.85l7.19-3.5a1.5,1.5,0,0,1,1.32,2.7l-7.2,3.5A1.51,1.51,0,0,1,693,261.67Zm14.38-7a1.5,1.5,0,0,1-.65-2.85l7.19-3.5a1.5,1.5,0,1,1,1.31,2.69l-7.19,3.51A1.55,1.55,0,0,1,707.4,254.67Zm14.39-7a1.5,1.5,0,0,1-1.35-.84,1.51,1.51,0,0,1,.69-2l7.2-3.5a1.5,1.5,0,0,1,1.31,2.7l-7.19,3.5A1.58,1.58,0,0,1,721.79,247.66Zm14.39-7a1.5,1.5,0,0,1-.66-2.85l7.19-3.5A1.5,1.5,0,0,1,744,237l-7.2,3.5A1.51,1.51,0,0,1,736.18,240.66Zm14.38-7a1.5,1.5,0,0,1-.66-2.85l7.2-3.5a1.5,1.5,0,1,1,1.31,2.69l-7.19,3.51A1.55,1.55,0,0,1,750.56,233.66Zm14.39-7a1.48,1.48,0,0,1-1.35-.84,1.5,1.5,0,0,1,.69-2l7.19-3.51a1.5,1.5,0,0,1,1.32,2.7l-7.2,3.5A1.38,1.38,0,0,1,765,226.65Z"/><path class="cls-3" d="M435.12,293.53a1.5,1.5,0,0,1-.68-2.84l7.13-3.63a1.5,1.5,0,0,1,1.36,2.67l-7.12,3.64A1.55,1.55,0,0,1,435.12,293.53Zm14.25-7.28a1.5,1.5,0,0,1-.68-2.83l7.12-3.64a1.5,1.5,0,1,1,1.37,2.67l-7.13,3.64A1.48,1.48,0,0,1,449.37,286.25ZM463.62,279a1.49,1.49,0,0,1-.68-2.83l7.12-3.64a1.5,1.5,0,1,1,1.37,2.67l-7.13,3.64A1.51,1.51,0,0,1,463.62,279Zm14.25-7.27a1.5,1.5,0,0,1-.68-2.84l7.12-3.64a1.5,1.5,0,1,1,1.37,2.67l-7.13,3.64A1.52,1.52,0,0,1,477.87,271.7Zm14.25-7.28a1.5,1.5,0,0,1-.68-2.84l7.12-3.64a1.51,1.51,0,0,1,2,.66,1.49,1.49,0,0,1-.65,2l-7.13,3.64A1.4,1.4,0,0,1,492.12,264.42Zm14.25-7.28a1.5,1.5,0,0,1-.68-2.84l7.12-3.63a1.5,1.5,0,1,1,1.36,2.67L507.05,257A1.51,1.51,0,0,1,506.37,257.14Zm14.25-7.28a1.5,1.5,0,0,1-.69-2.83l7.13-3.64a1.5,1.5,0,1,1,1.36,2.67l-7.12,3.64A1.51,1.51,0,0,1,520.62,249.86Zm14.25-7.28a1.5,1.5,0,0,1-.69-2.83l7.13-3.64a1.5,1.5,0,1,1,1.36,2.67l-7.12,3.64A1.51,1.51,0,0,1,534.87,242.58Zm14.24-7.27a1.5,1.5,0,0,1-.68-2.84l7.13-3.64a1.5,1.5,0,0,1,1.36,2.67l-7.12,3.64A1.56,1.56,0,0,1,549.11,235.31ZM563.36,228a1.5,1.5,0,0,1-.68-2.84l7.12-3.64a1.51,1.51,0,0,1,2,.66,1.49,1.49,0,0,1-.65,2l-7.12,3.64A1.56,1.56,0,0,1,563.36,228Zm14.25-7.28a1.5,1.5,0,0,1-.68-2.84l7.12-3.64a1.5,1.5,0,0,1,1.37,2.68l-7.13,3.64A1.48,1.48,0,0,1,577.61,220.75Zm14.25-7.28a1.52,1.52,0,0,1-1.34-.82,1.5,1.5,0,0,1,.66-2L598.3,207a1.5,1.5,0,0,1,1.37,2.67l-7.13,3.64A1.51,1.51,0,0,1,591.86,213.47Zm14.25-7.28a1.49,1.49,0,0,1-.68-2.83l7.12-3.64a1.5,1.5,0,0,1,1.37,2.67L606.79,206A1.51,1.51,0,0,1,606.11,206.19Zm14.25-7.27a1.5,1.5,0,0,1-.68-2.84l7.12-3.64a1.5,1.5,0,0,1,1.37,2.67L621,198.75A1.52,1.52,0,0,1,620.36,198.92Zm14.25-7.28a1.5,1.5,0,0,1-.69-2.84l7.13-3.64a1.5,1.5,0,1,1,1.36,2.67l-7.12,3.64A1.52,1.52,0,0,1,634.61,191.64Zm135.45-4.71a1.51,1.51,0,0,1-.68-.16l-7.13-3.62a1.5,1.5,0,0,1,1.35-2.68l7.14,3.62a1.5,1.5,0,0,1-.68,2.84Zm-121.2-2.57a1.5,1.5,0,0,1-.69-2.84l7.13-3.64a1.5,1.5,0,1,1,1.36,2.68l-7.12,3.63A1.4,1.4,0,0,1,648.86,184.36Zm106.93-4.67a1.51,1.51,0,0,1-.68-.16L748,175.91a1.5,1.5,0,1,1,1.36-2.67l7.13,3.61a1.5,1.5,0,0,1-.68,2.84Zm-92.68-2.61a1.5,1.5,0,0,1-.69-2.84l7.13-3.63a1.5,1.5,0,0,1,1.36,2.67l-7.12,3.64A1.51,1.51,0,0,1,663.11,177.08Zm78.41-4.63a1.51,1.51,0,0,1-.68-.16l-7.13-3.62a1.5,1.5,0,1,1,1.36-2.67l7.13,3.62a1.5,1.5,0,0,1-.68,2.83Zm-64.17-2.65a1.5,1.5,0,0,1-.68-2.83l7.13-3.64a1.5,1.5,0,0,1,1.36,2.67L678,169.64A1.55,1.55,0,0,1,677.35,169.8Zm49.9-4.58a1.52,1.52,0,0,1-.68-.17l-7.13-3.62a1.5,1.5,0,1,1,1.36-2.67l7.13,3.62a1.5,1.5,0,0,1-.68,2.84Zm-35.65-2.7a1.48,1.48,0,0,1-1.33-.81,1.5,1.5,0,0,1,.65-2l7.12-3.64a1.5,1.5,0,0,1,1.37,2.67l-7.13,3.64A1.48,1.48,0,0,1,691.6,162.52ZM713,158a1.34,1.34,0,0,1-.67-.17L706.73,155l-.2.1a1.5,1.5,0,1,1-1.36-2.67L706,152a1.51,1.51,0,0,1,1.36,0l6.26,3.18A1.5,1.5,0,0,1,713,158Z"/><polygon points="386.64 443.57 410.92 442.93 481.33 407.19 410.92 371.45 386.64 443.57"/><polygon class="cls-7" points="457.06 407.82 457.06 247.37 386.64 283.11 386.64 443.57 457.06 407.82"/><polygon class="cls-7" points="316.22 407.82 316.22 247.37 386.64 283.11 386.64 443.57 316.22 407.82"/><polygon class="cls-7" points="316.22 247.37 386.64 283.11 457.06 247.37 386.64 211.63 316.22 247.37"/><ellipse class="cls-7" cx="423.11" cy="388.25" rx="8.1" ry="5.01" transform="translate(-108.01 606.58) rotate(-64.89)"/><polyline class="cls-1" points="457.06 247.37 457.06 157.91 386.64 193.66"/><polyline class="cls-1" points="316.22 247.37 316.22 157.91 386.64 193.66 386.64 283.11"/><polygon class="cls-1" points="316.22 157.91 386.64 193.66 457.06 157.91 386.64 122.17 316.22 157.91"/><ellipse class="cls-3" cx="386.64" cy="160.05" rx="7.37" ry="4.2"/><polyline class="cls-8" points="177.02 478.23 247.44 442.49 247.44 353.04"/><polyline class="cls-8" points="106.61 353.04 106.61 442.49 177.02 478.23 177.02 391.81"/><polygon class="cls-8" points="106.61 353.04 177.02 388.78 247.44 353.04 177.02 317.29 106.61 353.04"/><circle class="cls-9" cx="177.02" cy="388.78" r="4.2"/><circle class="cls-9" cx="246.86" cy="353.04" r="4.2"/><circle class="cls-9" cx="177.02" cy="317.29" r="4.2"/><circle class="cls-9" cx="106.6" cy="353.04" r="4.2"/><circle class="cls-9" cx="177.02" cy="477.86" r="4.2"/><circle class="cls-9" cx="106.6" cy="442.12" r="4.2"/><ellipse class="cls-10" cx="177.02" cy="354.27" rx="9.74" ry="5.55"/><polyline class="cls-11" points="247.44 424 247.44 513.45 317.44 549.19 387.43 513.45 387.43 424"/><polygon class="cls-12" points="247.44 424 317.44 459.74 387.43 424 317.44 388.25 247.44 424"/><ellipse class="cls-13" cx="355.32" cy="485.46" rx="8.1" ry="5.01" transform="translate(-235.06 601.16) rotate(-64.89)"/><line class="cls-14" x1="317.44" y1="549.19" x2="317.44" y2="459.74"/><polyline class="cls-2" points="277.53 247.25 207.12 211.5 136.7 247.25"/><line class="cls-2" x1="207.11" y1="122.17" x2="207.11" y2="211.5"/><polygon class="cls-2" points="277.53 247.37 277.53 157.91 207.12 193.66 207.12 283.11 277.53 247.37"/><polygon class="cls-2" points="136.7 247.37 136.7 157.91 207.12 193.66 207.12 283.11 136.7 247.37"/><polygon class="cls-2" points="136.7 157.91 207.12 193.66 277.53 157.91 207.12 122.17 136.7 157.91"/><polygon class="cls-3" points="165.81 172.69 261.79 149.92 233.46 135.54 137.47 158.31 165.81 172.69"/><polygon class="cls-3" points="147.47 152.44 228.77 133.16 217.45 127.42 178.65 136.62 147.47 152.44"/><polygon class="cls-3" points="207.12 214.24 207.12 193.66 160.39 169.94 136.7 219.03 136.7 247.37 180.42 269.56 207.12 214.24"/><polygon class="cls-3" points="136.7 207.68 155.98 167.7 152.97 166.17 136.7 199.9 136.7 207.68"/><polygon class="cls-3" points="207.12 200.12 277.53 179.87 277.53 157.91 207.12 193.66 207.12 200.12"/><polygon class="cls-3" points="207.12 258.24 207.12 283.11 277.53 247.37 277.53 238 207.12 258.24"/><polygon class="cls-3" points="207.12 249.81 277.53 229.57 277.53 222.44 207.12 242.69 207.12 249.81"/><polygon points="1100.09 367.82 1124.36 367.18 1194.78 331.44 1124.36 295.7 1100.09 367.82"/><polygon class="cls-7" points="1170.51 332.07 1170.51 142.62 1100.09 178.36 1100.09 367.82 1170.51 332.07"/><polygon class="cls-7" points="1029.67 332.07 1029.67 142.62 1100.09 178.36 1100.09 367.82 1029.67 332.07"/><polygon class="cls-7" points="1029.67 142.62 1100.09 178.36 1170.51 142.62 1100.09 106.88 1029.67 142.62"/><ellipse class="cls-7" cx="1100.09" cy="144.35" rx="9.74" ry="5.55"/><polyline class="cls-14" points="771.15 426.1 667.77 373.99 564.05 425.63"/><line class="cls-14" x1="667.77" y1="242.23" x2="667.77" y2="266.86"/><polygon class="cls-15" points="668.35 401.99 583.4 444.28 668.23 486.85 753.01 444.67 668.35 401.99"/><line class="cls-16" x1="668.35" y1="266.86" x2="668.35" y2="375.03"/><polygon class="cls-4" points="668.35 374.28 583.4 416.58 668.23 459.15 753.01 416.96 668.35 374.28"/><polygon class="cls-3" points="668.35 266.86 583.4 309.16 668.23 351.73 753.01 309.54 668.35 266.86"/><polygon class="cls-17" points="753.01 417.06 668.27 459.24 668.27 351.73 753.01 309.54 753.01 417.06"/><polygon class="cls-13" points="668.27 374.32 668.35 374.28 753.01 416.96 668.27 459.13 668.27 374.32"/><polygon class="cls-8" points="583.53 416.68 668.27 459.24 668.27 351.73 583.53 309.16 583.53 416.68"/><polygon class="cls-6" points="668.27 318.94 630.2 337.9 668.22 356.98 706.21 338.07 668.27 318.94"/><polygon class="cls-17" points="668.27 396.5 630.2 415.46 668.22 434.53 706.21 415.63 668.27 396.5"/><polygon class="cls-4" points="706.21 386.25 668.23 405.16 668.23 356.98 706.21 338.07 706.21 386.25"/><polygon class="cls-3" points="630.26 386.08 668.23 405.16 668.23 356.98 630.26 337.9 630.26 386.08"/><polygon class="cls-3" points="668.23 343.12 651.52 351.44 668.21 359.82 684.89 351.52 668.23 343.12"/><polygon class="cls-13" points="684.89 372.68 668.22 380.98 668.22 359.82 684.89 351.52 684.89 372.68"/><polygon class="cls-4" points="651.54 372.6 668.22 380.98 668.22 359.82 651.54 351.45 651.54 372.6"/><polygon class="cls-8" points="668.35 266.86 583.4 309.16 668.23 351.73 753.01 309.54 668.35 266.86"/><polygon class="cls-8" points="753.01 417.06 668.27 459.24 668.27 351.73 753.01 309.54 753.01 417.06"/><polyline class="cls-14" points="771.15 294.35 667.77 242.23 564.21 293.88"/><polygon class="cls-14" points="564.21 425.16 667.68 477.13 667.68 345.86 640.71 332.31 564.21 293.88 564.21 425.16"/><polyline class="cls-14" points="667.68 345.86 771.15 294.35 771.15 425.63 667.68 477.13"/><polyline class="cls-2" points="693.89 332.61 667.14 345.67 639.73 332.02"/><polygon points="877.83 620.64 902.1 620.01 972.52 584.27 902.1 548.52 877.83 620.64"/><polygon class="cls-18" points="948.24 584.9 948.24 495.45 877.83 531.19 877.83 620.64 948.24 584.9"/><polygon class="cls-9" points="807.41 584.9 807.41 495.45 877.83 531.19 877.83 620.64 807.41 584.9"/><polygon class="cls-13" points="827.12 569.87 827.12 530.49 858.11 546.22 858.11 585.6 827.12 569.87"/><polygon class="cls-19" points="807.41 495.45 877.83 531.19 948.24 495.45 877.83 459.7 807.41 495.45"/><ellipse class="cls-20" cx="877.17" cy="495.45" rx="9.74" ry="5.55"/><path class="cls-3" d="M827.28,570l30.83,15.65V554.3Z"/><ellipse cx="917.73" cy="556.17" rx="8.1" ry="5.01" transform="translate(24.64 1151.09) rotate(-64.89)"/><circle class="cls-4" cx="457.06" cy="247.25" r="4.52"/><circle class="cls-4" cx="316.22" cy="247.25" r="4.52"/><circle class="cls-9" cx="246.86" cy="583.44" r="4.2"/><circle class="cls-9" cx="387.43" cy="583.44" r="4.2"/><circle class="cls-9" cx="317.44" cy="619.48" r="4.2"/><circle class="cls-6" cx="386.69" cy="283.11" r="4.2"/><circle class="cls-4" cx="877.8" cy="689.88" r="4.2"/><circle class="cls-4" cx="457.58" cy="689.88" r="4.2"/><circle class="cls-4" cx="667.84" cy="795.31" r="4.2"/><circle class="cls-4" cx="177.02" cy="548.52" r="4.2"/><circle class="cls-4" cx="1018.05" cy="549.83" r="4.2"/><circle class="cls-4" cx="737.75" cy="549.46" r="4.2"/><circle class="cls-4" cx="807.85" cy="654.88" r="4.2"/><circle class="cls-4" cx="1018.05" cy="479.48" r="4.2"/><circle class="cls-4" cx="597.55" cy="338.23" r="4.2"/><circle class="cls-4" cx="597.66" cy="478.65" r="4.2"/><circle class="cls-4" cx="457.58" cy="478.65" r="4.2"/><circle class="cls-4" cx="807.85" cy="444" r="4.2"/><circle class="cls-4" cx="737.8" cy="478.99" r="4.2"/><circle class="cls-18" cx="877.83" cy="620.64" r="4.2"/><circle class="cls-18" cx="877.83" cy="531.19" r="4.2"/><circle class="cls-18" cx="948.24" cy="495.45" r="4.2"/><circle class="cls-18" cx="807.41" cy="495.45" r="4.2"/><polygon points="948.24 445.05 972.52 444.42 1042.94 408.67 972.52 372.93 948.24 445.05"/><polygon class="cls-9" points="1018.66 409.31 1018.66 319.85 948.24 355.6 948.24 445.05 1018.66 409.31"/><polygon class="cls-19" points="877.83 409.31 877.83 319.85 948.24 355.6 948.24 445.05 877.83 409.31"/><polygon class="cls-21" points="877.83 319.85 948.24 355.6 1018.66 319.85 948.24 284.11 877.83 319.85"/><circle class="cls-9" cx="877.83" cy="408.46" r="4.2"/><circle class="cls-9" cx="948.24" cy="355.6" r="4.2"/><circle class="cls-9" cx="877.83" cy="320.94" r="4.2"/><ellipse class="cls-13" cx="985.33" cy="383.45" rx="8.1" ry="5.01" transform="translate(219.93 1112.89) rotate(-64.89)"/><ellipse class="cls-13" cx="912.03" cy="383.45" rx="5.01" ry="8.1" transform="translate(-76.53 423.33) rotate(-25.11)"/><ellipse cx="948.24" cy="320.94" rx="9.74" ry="5.55"/><path class="cls-3" d="M476.13,546.49a1.43,1.43,0,0,1-.66-.16l-5.5-2.72a1.5,1.5,0,1,1,1.33-2.69l5.5,2.72a1.5,1.5,0,0,1-.67,2.85Zm-12.66-6.27a1.47,1.47,0,0,1-.67-.16l-7.17-3.55a1.5,1.5,0,1,1,1.33-2.69l7.17,3.55a1.5,1.5,0,0,1-.66,2.85Zm-14.34-7.1a1.47,1.47,0,0,1-.67-.16l-7.16-3.55a1.5,1.5,0,1,1,1.33-2.69l7.17,3.55a1.51,1.51,0,0,1-.67,2.85ZM434.79,526a1.43,1.43,0,0,1-.66-.16L427,522.31a1.5,1.5,0,1,1,1.33-2.69l7.17,3.55a1.5,1.5,0,0,1-.67,2.85Zm-14.34-7.1a1.43,1.43,0,0,1-.66-.16l-7.17-3.55a1.5,1.5,0,1,1,1.33-2.69l7.17,3.55a1.5,1.5,0,0,1-.67,2.85Zm-14.34-7.1a1.43,1.43,0,0,1-.66-.16l-7.17-3.55a1.5,1.5,0,0,1,1.33-2.69l7.17,3.55a1.5,1.5,0,0,1-.67,2.85Zm-14.33-7.1a1.44,1.44,0,0,1-.67-.16L383.94,501a1.5,1.5,0,1,1,1.33-2.69l7.17,3.55a1.5,1.5,0,0,1-.66,2.85Zm-14.34-7.1a1.47,1.47,0,0,1-.67-.16l-7.17-3.55a1.5,1.5,0,1,1,1.33-2.69l7.17,3.55a1.5,1.5,0,0,1-.66,2.85Zm-14.34-7.1a1.47,1.47,0,0,1-.67-.16l-7.17-3.55a1.5,1.5,0,0,1,1.34-2.69l7.16,3.55a1.5,1.5,0,0,1-.66,2.85Z"/><path class="cls-3" d="M393.45,499.23a1.52,1.52,0,0,1-1.35-.84,1.5,1.5,0,0,1,.68-2l7.17-3.56a1.5,1.5,0,0,1,1.33,2.69l-7.17,3.55A1.43,1.43,0,0,1,393.45,499.23Zm14.33-7.11a1.5,1.5,0,0,1-.66-2.84l7.16-3.56a1.5,1.5,0,0,1,1.34,2.69L408.45,492A1.59,1.59,0,0,1,407.78,492.12Zm14.34-7.1a1.5,1.5,0,0,1-.67-2.85l7.17-3.55a1.5,1.5,0,0,1,1.33,2.69l-7.17,3.55A1.43,1.43,0,0,1,422.12,485Zm14.33-7.11a1.5,1.5,0,0,1-.66-2.85l7.16-3.55a1.5,1.5,0,0,1,1.34,2.69l-7.17,3.55A1.47,1.47,0,0,1,436.45,477.91Zm14.34-7.11a1.5,1.5,0,0,1-.67-2.84l7.17-3.56a1.5,1.5,0,0,1,1.33,2.69l-7.17,3.55A1.43,1.43,0,0,1,450.79,470.8Zm14.33-7.11a1.5,1.5,0,0,1-.66-2.84l7.16-3.55A1.5,1.5,0,0,1,473,460l-7.17,3.56A1.59,1.59,0,0,1,465.12,463.69Zm14.34-7.1a1.5,1.5,0,0,1-.67-2.85l7.17-3.55a1.5,1.5,0,1,1,1.33,2.69l-7.17,3.55A1.43,1.43,0,0,1,479.46,456.59Zm14.33-7.11a1.5,1.5,0,0,1-.66-2.84l7.16-3.56a1.5,1.5,0,0,1,1.34,2.69l-7.17,3.55A1.47,1.47,0,0,1,493.79,449.48Zm14.34-7.11a1.5,1.5,0,0,1-.67-2.84l7.17-3.55a1.5,1.5,0,1,1,1.33,2.68l-7.17,3.56A1.55,1.55,0,0,1,508.13,442.37Zm14.33-7.1a1.5,1.5,0,0,1-.66-2.85l7.16-3.55a1.5,1.5,0,0,1,1.34,2.69l-7.17,3.55A1.47,1.47,0,0,1,522.46,435.27Zm14.34-7.11a1.53,1.53,0,0,1-1.35-.83,1.5,1.5,0,0,1,.68-2l7.17-3.56a1.5,1.5,0,0,1,1.33,2.69L537.46,428A1.43,1.43,0,0,1,536.8,428.16Zm14.33-7.11a1.5,1.5,0,0,1-.66-2.84l7.16-3.55a1.5,1.5,0,1,1,1.34,2.68l-7.17,3.56A1.59,1.59,0,0,1,551.13,421.05Zm14.34-7.1a1.5,1.5,0,0,1-.67-2.85l7.17-3.55a1.5,1.5,0,1,1,1.33,2.69l-7.17,3.55A1.43,1.43,0,0,1,565.47,414Zm14.33-7.11a1.5,1.5,0,0,1-.66-2.85l7.16-3.55a1.5,1.5,0,0,1,1.34,2.69l-7.17,3.55A1.47,1.47,0,0,1,579.8,406.84Zm14.34-7.11a1.5,1.5,0,0,1-.67-2.84l7.17-3.56A1.5,1.5,0,1,1,602,396l-7.17,3.56A1.55,1.55,0,0,1,594.14,399.73Zm14.33-7.11a1.5,1.5,0,0,1-.66-2.84l7.16-3.55a1.5,1.5,0,0,1,1.34,2.69l-7.17,3.55A1.59,1.59,0,0,1,608.47,392.62Zm14.34-7.1a1.5,1.5,0,0,1-.67-2.85l7.17-3.55a1.5,1.5,0,0,1,1.33,2.69l-7.17,3.55A1.43,1.43,0,0,1,622.81,385.52Zm14.33-7.11a1.5,1.5,0,0,1-1.34-.83,1.49,1.49,0,0,1,.68-2l7.16-3.56A1.5,1.5,0,0,1,645,374.7l-7.17,3.55A1.47,1.47,0,0,1,637.14,378.41Zm14.34-7.11a1.5,1.5,0,0,1-.67-2.84l7.17-3.55a1.5,1.5,0,1,1,1.33,2.68l-7.17,3.56A1.55,1.55,0,0,1,651.48,371.3Z"/><path class="cls-3" d="M868.79,463a.78.78,0,0,1-.33-.07l-7.16-3.56a.75.75,0,0,1-.34-1,.74.74,0,0,1,1-.33l7.17,3.55a.75.75,0,0,1-.34,1.42Zm-14.33-7.11a.8.8,0,0,1-.33-.08L847,452.26a.75.75,0,0,1,.67-1.35l7.17,3.56a.75.75,0,0,1,.34,1A.76.76,0,0,1,854.46,455.89Zm-14.33-7.11a.8.8,0,0,1-.33-.08l-7.17-3.56a.75.75,0,1,1,.67-1.34l7.17,3.55a.76.76,0,0,1-.34,1.43Zm-14.33-7.12a.64.64,0,0,1-.33-.08L818.3,438a.75.75,0,0,1,.67-1.35l7.16,3.56a.75.75,0,0,1-.33,1.42Zm-14.33-7.11a.76.76,0,0,1-.33-.08L804,430.91a.75.75,0,0,1-.34-1,.76.76,0,0,1,1-.34l7.16,3.56a.75.75,0,0,1-.33,1.42Zm-14.33-7.12a.83.83,0,0,1-.34-.07l-7.16-3.56a.75.75,0,1,1,.67-1.35l7.16,3.56a.76.76,0,0,1,.34,1A.75.75,0,0,1,797.14,427.43Zm-14.33-7.11a.81.81,0,0,1-.34-.08l-7.16-3.56a.74.74,0,0,1-.34-1,.75.75,0,0,1,1-.34l7.17,3.56a.75.75,0,0,1-.33,1.42Zm-14.34-7.11a.8.8,0,0,1-.33-.08L761,409.57a.75.75,0,1,1,.66-1.34l7.17,3.55a.75.75,0,0,1-.34,1.43Zm-14.33-7.12a.67.67,0,0,1-.33-.08l-7.17-3.55a.75.75,0,0,1,.67-1.35l7.17,3.56a.75.75,0,0,1,.34,1A.76.76,0,0,1,754.14,406.09ZM739.81,399a.8.8,0,0,1-.33-.08l-7.17-3.56a.75.75,0,0,1-.34-1,.76.76,0,0,1,1-.34l7.17,3.56a.74.74,0,0,1,.33,1A.75.75,0,0,1,739.81,399Zm-14.33-7.12a.64.64,0,0,1-.33-.08L718,388.23a.75.75,0,1,1,.67-1.35l7.16,3.56a.75.75,0,0,1-.33,1.42Zm-14.33-7.11a.76.76,0,0,1-.33-.08l-7.17-3.56a.75.75,0,0,1-.34-1,.76.76,0,0,1,1-.34l7.16,3.56a.75.75,0,0,1-.33,1.42Zm-14.33-7.12a.83.83,0,0,1-.34-.07L689.32,374a.76.76,0,0,1-.34-1,.75.75,0,0,1,1-.33l7.16,3.55a.76.76,0,0,1,.34,1A.75.75,0,0,1,696.82,377.63Zm-14.33-7.11a.81.81,0,0,1-.34-.08L675,366.89a.76.76,0,0,1-.34-1,.75.75,0,0,1,1-.34l7.17,3.56a.75.75,0,0,1-.33,1.42Z"/><polygon points="528 654.4 552.28 653.77 622.7 618.03 552.28 582.28 528 654.4"/><polygon class="cls-18" points="598.42 618.66 598.42 519.21 528 554.95 528 654.4 598.42 618.66"/><polygon points="537.21 641.44 537.21 563.68 532.4 566.12 532.4 643.88 537.21 641.44"/><polygon class="cls-17" points="537.21 641.44 537.21 563.68 535.61 564.49 535.61 642.25 537.21 641.44"/><polygon points="546.83 636.56 546.83 558.8 542.02 561.24 542.02 639 546.83 636.56"/><polygon class="cls-17" points="546.83 636.56 546.83 558.8 545.22 559.61 545.22 637.37 546.83 636.56"/><polygon points="556.44 631.68 556.44 553.92 551.63 556.36 551.63 634.12 556.44 631.68"/><polygon class="cls-17" points="556.44 631.68 556.44 553.92 554.84 554.73 554.84 632.49 556.44 631.68"/><polygon points="566.06 626.8 566.06 549.04 561.25 551.48 561.25 629.24 566.06 626.8"/><polygon class="cls-17" points="566.06 626.8 566.06 549.04 564.45 549.85 564.45 627.61 566.06 626.8"/><polygon points="575.67 621.92 575.67 544.16 570.86 546.6 570.86 624.36 575.67 621.92"/><polygon class="cls-17" points="575.67 621.92 575.67 544.16 574.07 544.97 574.07 622.73 575.67 621.92"/><polygon points="585.29 617.04 585.29 539.28 580.48 541.72 580.48 619.48 585.29 617.04"/><polygon class="cls-17" points="585.29 617.04 585.29 539.28 583.68 540.09 583.68 617.85 585.29 617.04"/><polygon points="594.9 612.15 594.9 534.4 590.09 536.84 590.09 614.6 594.9 612.15"/><polygon class="cls-17" points="594.9 612.15 594.9 534.4 593.3 535.21 593.3 612.97 594.9 612.15"/><polygon class="cls-9" points="457.58 618.66 457.58 519.21 528 554.95 528 654.4 457.58 618.66"/><polygon points="518.79 641.44 518.79 563.68 523.6 566.12 523.6 643.88 518.79 641.44"/><polygon class="cls-13" points="518.79 641.44 518.79 563.68 520.4 564.49 520.4 642.25 518.79 641.44"/><polygon points="509.18 636.56 509.18 558.8 513.99 561.24 513.99 639 509.18 636.56"/><polygon class="cls-13" points="509.18 636.56 509.18 558.8 510.78 559.61 510.78 637.37 509.18 636.56"/><polygon points="499.56 631.68 499.56 553.92 504.37 556.36 504.37 634.12 499.56 631.68"/><polygon class="cls-13" points="499.56 631.68 499.56 553.92 501.17 554.73 501.17 632.49 499.56 631.68"/><polygon points="489.95 626.8 489.95 549.04 494.76 551.48 494.76 629.24 489.95 626.8"/><polygon class="cls-13" points="489.95 626.8 489.95 549.04 491.55 549.85 491.55 627.61 489.95 626.8"/><polygon points="480.33 621.92 480.33 544.16 485.14 546.6 485.14 624.36 480.33 621.92"/><polygon class="cls-13" points="480.33 621.92 480.33 544.16 481.94 544.97 481.94 622.73 480.33 621.92"/><polygon points="470.65 616.9 470.65 539.14 475.45 541.58 475.45 619.34 470.65 616.9"/><polygon class="cls-13" points="470.65 616.9 470.65 539.14 472.25 539.96 472.25 617.71 470.65 616.9"/><polygon points="461.1 612.15 461.1 534.4 465.91 536.84 465.91 614.6 461.1 612.15"/><polygon class="cls-13" points="461.1 612.15 461.1 534.4 462.71 535.21 462.71 612.97 461.1 612.15"/><polygon class="cls-19" points="457.58 519.21 528 554.95 598.42 519.21 528 483.46 457.58 519.21"/><ellipse class="cls-4" cx="527" cy="519.21" rx="9.74" ry="5.55"/><polygon points="598.42 760.69 626.21 758.34 763.09 688.87 692.67 653.12 598.42 760.69"/><polygon class="cls-18" points="738.82 689.5 738.82 590.04 598.42 661.23 598.42 760.69 738.82 689.5"/><polygon points="677.61 712.27 677.61 634.52 672.8 636.96 672.8 714.72 677.61 712.27"/><polygon class="cls-17" points="677.61 712.27 677.61 634.52 676 635.33 676 713.09 677.61 712.27"/><polygon points="687.22 707.39 687.22 629.64 682.41 632.08 682.41 709.84 687.22 707.39"/><polygon class="cls-17" points="687.22 707.39 687.22 629.64 685.62 630.45 685.62 708.21 687.22 707.39"/><polygon points="696.84 702.51 696.84 624.76 692.03 627.2 692.03 704.95 696.84 702.51"/><polygon class="cls-17" points="696.84 702.51 696.84 624.76 695.23 625.57 695.23 703.33 696.84 702.51"/><polygon points="706.45 697.63 706.45 619.88 701.64 622.32 701.64 700.07 706.45 697.63"/><polygon class="cls-17" points="706.45 697.63 706.45 619.88 704.85 620.69 704.85 698.45 706.45 697.63"/><polygon points="716.07 692.75 716.07 615 711.26 617.44 711.26 695.19 716.07 692.75"/><polygon class="cls-17" points="716.07 692.75 716.07 615 714.46 615.81 714.46 693.57 716.07 692.75"/><polygon points="725.68 687.87 725.68 610.12 720.87 612.56 720.87 690.31 725.68 687.87"/><polygon class="cls-17" points="725.68 687.87 725.68 610.12 724.08 610.93 724.08 688.69 725.68 687.87"/><polygon points="735.3 682.99 735.3 605.24 730.49 607.68 730.49 685.43 735.3 682.99"/><polygon class="cls-17" points="735.3 682.99 735.3 605.24 733.69 606.05 733.69 683.81 735.3 682.99"/><polygon points="610.15 746.45 610.15 668.69 605.34 671.13 605.34 748.89 610.15 746.45"/><polygon class="cls-17" points="610.15 746.45 610.15 668.69 608.55 669.51 608.55 747.26 610.15 746.45"/><polygon points="619.76 741.57 619.76 663.81 614.96 666.25 614.96 744.01 619.76 741.57"/><polygon class="cls-17" points="619.76 741.57 619.76 663.81 618.16 664.63 618.16 742.38 619.76 741.57"/><polygon points="629.38 736.69 629.38 658.93 624.57 661.37 624.57 739.13 629.38 736.69"/><polygon class="cls-17" points="629.38 736.69 629.38 658.93 627.78 659.75 627.78 737.5 629.38 736.69"/><polygon points="638.99 731.81 638.99 654.05 634.19 656.49 634.19 734.25 638.99 731.81"/><polygon class="cls-17" points="638.99 731.81 638.99 654.05 637.39 654.87 637.39 732.62 638.99 731.81"/><polygon points="648.61 726.93 648.61 649.17 643.8 651.61 643.8 729.37 648.61 726.93"/><polygon class="cls-17" points="648.61 726.93 648.61 649.17 647.01 649.99 647.01 727.74 648.61 726.93"/><polygon points="658.22 722.05 658.22 644.29 653.42 646.73 653.42 724.49 658.22 722.05"/><polygon class="cls-17" points="658.22 722.05 658.22 644.29 656.62 645.11 656.62 722.86 658.22 722.05"/><polygon points="667.84 717.17 667.84 639.41 663.03 641.85 663.03 719.61 667.84 717.17"/><polygon class="cls-17" points="667.84 717.17 667.84 639.41 666.24 640.23 666.24 717.98 667.84 717.17"/><polygon class="cls-9" points="528 724.95 528 625.49 598.42 661.23 598.42 760.69 528 724.95"/><polygon points="589.21 747.72 589.21 669.96 594.02 672.4 594.02 750.16 589.21 747.72"/><polygon class="cls-13" points="589.21 747.72 589.21 669.96 590.82 670.78 590.82 748.53 589.21 747.72"/><polygon points="569.98 737.96 569.98 660.2 574.79 662.64 574.79 740.4 569.98 737.96"/><polygon class="cls-13" points="569.98 737.96 569.98 660.2 571.59 661.01 571.59 738.77 569.98 737.96"/><polygon points="579.67 742.84 579.67 665.08 584.48 667.52 584.48 745.28 579.67 742.84"/><polygon class="cls-13" points="579.67 742.84 579.67 665.08 581.27 665.9 581.27 743.65 579.67 742.84"/><polygon points="560.37 733.08 560.37 655.32 565.18 657.76 565.18 735.52 560.37 733.08"/><polygon class="cls-13" points="560.37 733.08 560.37 655.32 561.97 656.13 561.97 733.89 560.37 733.08"/><polygon points="550.75 728.2 550.75 650.44 555.56 652.88 555.56 730.64 550.75 728.2"/><polygon class="cls-13" points="550.75 728.2 550.75 650.44 552.36 651.25 552.36 729.01 550.75 728.2"/><polygon points="541.14 723.32 541.14 645.56 545.95 648 545.95 725.76 541.14 723.32"/><polygon class="cls-13" points="541.14 723.32 541.14 645.56 542.74 646.38 542.74 724.13 541.14 723.32"/><polygon points="531.52 718.44 531.52 640.68 536.33 643.12 536.33 720.88 531.52 718.44"/><polygon class="cls-13" points="531.52 718.44 531.52 640.68 533.13 641.49 533.13 719.25 531.52 718.44"/><polygon class="cls-19" points="528 625.49 598.42 661.23 738.82 590.04 668.4 554.3 528 625.49"/><ellipse class="cls-4" cx="666.68" cy="589.71" rx="9.74" ry="5.55"/><polygon points="1158.29 550.77 1182.56 550.13 1252.98 514.39 1182.56 478.65 1158.29 550.77"/><polygon class="cls-18" points="1228.71 515.03 1228.71 415.57 1158.29 451.31 1158.29 550.77 1228.71 515.03"/><polygon class="cls-9" points="1087.87 515.03 1087.87 415.57 1158.29 451.31 1158.29 550.77 1087.87 515.03"/><polygon class="cls-19" points="1087.87 415.57 1158.29 451.31 1228.71 415.57 1158.29 379.83 1087.87 415.57"/><ellipse class="cls-4" cx="1158.29" cy="415.57" rx="9.74" ry="5.55"/><circle class="cls-9" cx="1158.29" cy="451.31" r="4.2"/><circle class="cls-9" cx="1158.29" cy="549.83" r="4.2"/><ellipse cx="1120.53" cy="482.1" rx="5.01" ry="8.1" transform="translate(-98.68 521.15) rotate(-25.11)"/><path class="cls-6" d="M921.94,560.05a1.43,1.43,0,0,1-.66-.16l-3.59-1.77a1.5,1.5,0,1,1,1.33-2.69l3.59,1.77a1.5,1.5,0,0,1-.67,2.85Z"/><path class="cls-6" d="M935.28,566.63a1.55,1.55,0,0,1-.66-.15l-6.67-3.3a1.5,1.5,0,1,1,1.33-2.68l6.67,3.29a1.5,1.5,0,0,1-.67,2.84Z"/><path class="cls-6" d="M945.54,571.7a1.37,1.37,0,0,1-.66-.16l-3.59-1.77a1.5,1.5,0,0,1,1.33-2.69l2.91,1.44,2.9-1.46a1.5,1.5,0,1,1,1.36,2.67l-3.57,1.81A1.65,1.65,0,0,1,945.54,571.7Z"/><path class="cls-6" d="M956.39,566.22a1.5,1.5,0,0,1-.68-2.84l7.28-3.67a1.5,1.5,0,1,1,1.35,2.68l-7.27,3.67A1.51,1.51,0,0,1,956.39,566.22ZM971,558.87a1.5,1.5,0,0,1-.68-2.83l7.28-3.68A1.5,1.5,0,1,1,978.9,555l-7.28,3.67A1.44,1.44,0,0,1,971,558.87Zm14.56-7.34a1.5,1.5,0,0,1-.68-2.84l7.28-3.67a1.5,1.5,0,1,1,1.35,2.67l-7.28,3.68A1.44,1.44,0,0,1,985.51,551.53Zm14.56-7.35a1.5,1.5,0,0,1-.68-2.84l7.28-3.67a1.5,1.5,0,0,1,1.35,2.68l-7.28,3.67A1.5,1.5,0,0,1,1000.07,544.18Zm14.56-7.35A1.5,1.5,0,0,1,1014,534l7.28-3.67a1.5,1.5,0,0,1,1.35,2.68l-7.28,3.67A1.5,1.5,0,0,1,1014.63,536.83Zm14.55-7.34a1.53,1.53,0,0,1-1.34-.83,1.5,1.5,0,0,1,.67-2l7.28-3.68a1.5,1.5,0,0,1,1.35,2.68l-7.28,3.67A1.52,1.52,0,0,1,1029.18,529.49Zm14.56-7.35a1.5,1.5,0,0,1-.67-2.84l7.27-3.67a1.5,1.5,0,1,1,1.36,2.67l-7.28,3.68A1.51,1.51,0,0,1,1043.74,522.14Zm14.56-7.35a1.5,1.5,0,0,1-.68-2.84l7.28-3.67a1.5,1.5,0,0,1,1.36,2.68l-7.28,3.67A1.51,1.51,0,0,1,1058.3,514.79Zm14.56-7.35a1.5,1.5,0,0,1-.68-2.84l7.28-3.67a1.5,1.5,0,1,1,1.35,2.68l-7.28,3.67A1.44,1.44,0,0,1,1072.86,507.44Zm14.56-7.34a1.5,1.5,0,0,1-1.34-.83,1.49,1.49,0,0,1,.66-2l7.28-3.68a1.5,1.5,0,1,1,1.35,2.68l-7.28,3.67A1.45,1.45,0,0,1,1087.42,500.1Zm14.56-7.35a1.5,1.5,0,0,1-.68-2.84l7.28-3.67a1.5,1.5,0,1,1,1.35,2.67l-7.28,3.68A1.47,1.47,0,0,1,1102,492.75Z"/><path class="cls-6" d="M1116.54,485.4a1.5,1.5,0,0,1-.68-2.84l3.57-1.8a1.5,1.5,0,1,1,1.35,2.68l-3.57,1.8A1.5,1.5,0,0,1,1116.54,485.4Z"/><path class="cls-6" d="M666.19,591a1.5,1.5,0,0,1-1.5-1.5v-4a1.5,1.5,0,0,1,3,0v4A1.51,1.51,0,0,1,666.19,591Z"/><path class="cls-6" d="M666.19,579.74a1.5,1.5,0,0,1-1.5-1.5v-7.3a1.5,1.5,0,0,1,3,0v7.3A1.51,1.51,0,0,1,666.19,579.74Zm0-14.59a1.5,1.5,0,0,1-1.5-1.5v-7.29a1.5,1.5,0,0,1,3,0v7.29A1.5,1.5,0,0,1,666.19,565.15Zm0-14.58a1.5,1.5,0,0,1-1.5-1.5v-7.29a1.5,1.5,0,0,1,3,0v7.29A1.5,1.5,0,0,1,666.19,550.57Z"/><path class="cls-6" d="M666.19,536a1.5,1.5,0,0,1-1.5-1.5v-3.08L661.94,530a1.5,1.5,0,0,1,1.36-2.68l3.56,1.81a1.51,1.51,0,0,1,.83,1.34v4A1.5,1.5,0,0,1,666.19,536Z"/><path class="cls-6" d="M655.68,526.66a1.51,1.51,0,0,1-.68-.16L648.06,523a1.5,1.5,0,0,1,1.36-2.68l6.94,3.52a1.5,1.5,0,0,1-.68,2.84Zm-13.88-7a1.51,1.51,0,0,1-.68-.16l-6.94-3.52a1.5,1.5,0,1,1,1.36-2.68l6.94,3.52a1.5,1.5,0,0,1-.68,2.84Zm-13.88-7a1.51,1.51,0,0,1-.68-.16l-6.94-3.52a1.5,1.5,0,0,1,1.36-2.68l6.94,3.52a1.5,1.5,0,0,1-.68,2.84Zm-13.88-7a1.44,1.44,0,0,1-.67-.16l-6.94-3.52a1.5,1.5,0,0,1,1.35-2.68l6.94,3.52a1.5,1.5,0,0,1-.68,2.84Zm-13.88-7a1.47,1.47,0,0,1-.67-.16l-6.94-3.52a1.5,1.5,0,0,1,1.35-2.68l6.94,3.52a1.5,1.5,0,0,1-.68,2.84Zm-13.87-7a1.51,1.51,0,0,1-.68-.16l-6.94-3.52A1.5,1.5,0,1,1,580,485.1l6.94,3.52a1.5,1.5,0,0,1-.68,2.84Zm-13.88-7a1.51,1.51,0,0,1-.68-.16l-6.94-3.52a1.5,1.5,0,1,1,1.36-2.68l6.94,3.52a1.5,1.5,0,0,1-.68,2.84Zm-13.88-7a1.51,1.51,0,0,1-.68-.16l-6.94-3.52a1.5,1.5,0,1,1,1.36-2.68l6.94,3.52a1.5,1.5,0,0,1-.68,2.84Zm-13.88-7a1.51,1.51,0,0,1-.68-.16L537,466.66a1.5,1.5,0,1,1,1.36-2.68l6.94,3.52a1.5,1.5,0,0,1-.68,2.84Z"/><path class="cls-6" d="M527.21,465.49a1.5,1.5,0,0,1-1.5-1.5v-4a1.49,1.49,0,0,1,2.17-1.34l3.57,1.81a1.5,1.5,0,0,1-1.36,2.68l-1.38-.71V464A1.5,1.5,0,0,1,527.21,465.49Z"/><path class="cls-6" d="M527.21,508.81a1.5,1.5,0,0,1-1.5-1.5v-7.22a1.5,1.5,0,1,1,3,0v7.22A1.5,1.5,0,0,1,527.21,508.81Zm0-14.44a1.5,1.5,0,0,1-1.5-1.5v-7.22a1.5,1.5,0,0,1,3,0v7.22A1.5,1.5,0,0,1,527.21,494.37Zm0-14.44a1.5,1.5,0,0,1-1.5-1.5v-7.22a1.5,1.5,0,0,1,3,0v7.22A1.5,1.5,0,0,1,527.21,479.93Z"/><path class="cls-6" d="M527.21,520a1.5,1.5,0,0,1-1.5-1.5v-4a1.5,1.5,0,0,1,3,0v4A1.51,1.51,0,0,1,527.21,520Z"/><path class="cls-3" d="M524.71,459.69a1.44,1.44,0,0,1-.67-.16l-3.58-1.79a1.5,1.5,0,1,1,1.34-2.68l3.58,1.78a1.5,1.5,0,0,1-.67,2.85Z"/><path class="cls-3" d="M513.88,454.28a1.5,1.5,0,0,1-.67-.16L506,450.5a1.5,1.5,0,1,1,1.34-2.68l7.24,3.62a1.49,1.49,0,0,1,.68,2A1.51,1.51,0,0,1,513.88,454.28ZM499.39,447a1.5,1.5,0,0,1-.67-.16l-7.24-3.62a1.5,1.5,0,1,1,1.34-2.68l7.24,3.62a1.49,1.49,0,0,1,.68,2A1.51,1.51,0,0,1,499.39,447ZM484.9,439.8a1.5,1.5,0,0,1-.67-.16L477,436a1.5,1.5,0,1,1,1.34-2.68l7.24,3.62a1.49,1.49,0,0,1,.68,2A1.51,1.51,0,0,1,484.9,439.8Zm-14.49-7.24a1.63,1.63,0,0,1-.67-.15l-7.24-3.62a1.5,1.5,0,0,1,1.34-2.69l7.24,3.62a1.5,1.5,0,0,1-.67,2.84Zm-14.49-7.24a1.63,1.63,0,0,1-.67-.15L448,421.55a1.5,1.5,0,0,1,1.34-2.69l7.24,3.62a1.5,1.5,0,0,1-.67,2.84Zm-14.49-7.23a1.5,1.5,0,0,1-.67-.16l-7.24-3.62a1.5,1.5,0,1,1,1.34-2.69l7.24,3.62a1.5,1.5,0,0,1-.67,2.85Zm-14.49-7.24a1.5,1.5,0,0,1-.67-.16L419,407.07a1.49,1.49,0,0,1-.68-2,1.51,1.51,0,0,1,2-.67l7.24,3.62a1.5,1.5,0,0,1-.67,2.84Zm-14.49-7.24a1.47,1.47,0,0,1-.67-.16l-7.24-3.62a1.49,1.49,0,0,1-.68-2,1.51,1.51,0,0,1,2-.67l7.24,3.62a1.5,1.5,0,0,1-.67,2.84ZM398,396.37a1.47,1.47,0,0,1-.67-.16L390,392.59a1.5,1.5,0,1,1,1.35-2.68l7.24,3.62a1.5,1.5,0,0,1-.67,2.84Zm-14.49-7.24a1.44,1.44,0,0,1-.67-.16l-7.25-3.62a1.5,1.5,0,1,1,1.35-2.68l7.24,3.62a1.5,1.5,0,0,1-.67,2.84ZM369,381.89a1.44,1.44,0,0,1-.67-.16l-7.25-3.62a1.5,1.5,0,0,1,1.34-2.68l7.25,3.62a1.5,1.5,0,0,1-.67,2.84Zm-14.49-7.24a1.56,1.56,0,0,1-.67-.15l-7.25-3.62a1.5,1.5,0,0,1,1.34-2.69l7.25,3.62a1.5,1.5,0,0,1-.67,2.84ZM340,367.41a1.56,1.56,0,0,1-.67-.15l-7.25-3.62a1.5,1.5,0,0,1,1.34-2.69l7.25,3.62a1.5,1.5,0,0,1-.67,2.84Zm-14.49-7.23a1.44,1.44,0,0,1-.67-.16l-7.25-3.62a1.5,1.5,0,0,1,1.34-2.68l7.25,3.61a1.5,1.5,0,0,1-.67,2.85ZM311,352.94a1.44,1.44,0,0,1-.67-.16l-7.25-3.62a1.5,1.5,0,0,1,1.34-2.68l7.25,3.62a1.5,1.5,0,0,1-.67,2.84Zm-14.49-7.24a1.44,1.44,0,0,1-.67-.16l-7.25-3.62a1.5,1.5,0,0,1,1.34-2.68l7.25,3.62a1.5,1.5,0,0,1-.67,2.84ZM282,338.46a1.44,1.44,0,0,1-.67-.16l-7.25-3.62a1.5,1.5,0,0,1,1.34-2.68l7.25,3.62a1.5,1.5,0,0,1-.67,2.84Zm-14.5-7.24a1.43,1.43,0,0,1-.66-.16l-7.25-3.62a1.5,1.5,0,0,1,1.34-2.68l7.25,3.62a1.5,1.5,0,0,1-.68,2.84ZM253.05,324a1.5,1.5,0,0,1-.67-.16l-7.24-3.62a1.5,1.5,0,0,1,1.34-2.68l7.25,3.62a1.5,1.5,0,0,1-.68,2.84Zm-14.49-7.24a1.63,1.63,0,0,1-.67-.15L230.65,313a1.5,1.5,0,0,1,1.34-2.69l7.25,3.62a1.5,1.5,0,0,1-.68,2.84Zm-14.49-7.24a1.63,1.63,0,0,1-.67-.15l-7.24-3.62A1.5,1.5,0,0,1,217.5,303l7.24,3.62a1.49,1.49,0,0,1,.68,2A1.51,1.51,0,0,1,224.07,309.5Zm-14.49-7.23a1.5,1.5,0,0,1-.67-.16l-7.24-3.62a1.5,1.5,0,0,1-.67-2,1.48,1.48,0,0,1,2-.67l7.24,3.61a1.5,1.5,0,0,1,.68,2A1.53,1.53,0,0,1,209.58,302.27ZM195.09,295a1.5,1.5,0,0,1-.67-.16l-7.24-3.62a1.5,1.5,0,0,1,1.34-2.68l7.24,3.61a1.5,1.5,0,0,1-.67,2.85Z"/><path class="cls-3" d="M177,290a1.5,1.5,0,0,1-1.5-1.5v-4a1.5,1.5,0,0,1,2.17-1.34l3.58,1.79a1.5,1.5,0,1,1-1.34,2.68l-1.41-.7v1.57A1.5,1.5,0,0,1,177,290Z"/><path class="cls-3" d="M177,341.89a1.5,1.5,0,0,1-1.5-1.5v-8.65a1.5,1.5,0,0,1,3,0v8.65A1.5,1.5,0,0,1,177,341.89Zm0-17.3a1.5,1.5,0,0,1-1.5-1.5v-8.65a1.5,1.5,0,0,1,3,0v8.65A1.5,1.5,0,0,1,177,324.59Zm0-17.29a1.51,1.51,0,0,1-1.5-1.5v-8.65a1.5,1.5,0,0,1,3,0v8.65A1.5,1.5,0,0,1,177,307.3Z"/><path class="cls-3" d="M177,354.54a1.51,1.51,0,0,1-1.5-1.5v-4a1.5,1.5,0,0,1,3,0v4A1.5,1.5,0,0,1,177,354.54Z"/><path class="cls-6" d="M667.12,532a1.5,1.5,0,0,1-.69-2.83l3.57-1.82a1.5,1.5,0,0,1,1.36,2.67l-3.56,1.82A1.51,1.51,0,0,1,667.12,532Z"/><path class="cls-6" d="M677.68,526.6a1.5,1.5,0,0,1-.69-2.84l7-3.57a1.51,1.51,0,0,1,2,.66,1.49,1.49,0,0,1-.66,2l-7,3.58A1.51,1.51,0,0,1,677.68,526.6Zm14-7.14a1.5,1.5,0,0,1-.68-2.84l7-3.57a1.5,1.5,0,0,1,1.36,2.67l-7,3.57A1.52,1.52,0,0,1,691.67,519.46Zm14-7.15a1.5,1.5,0,0,1-.69-2.83l7-3.58a1.5,1.5,0,0,1,1.36,2.68l-7,3.57A1.51,1.51,0,0,1,705.67,512.31Zm14-7.14a1.5,1.5,0,0,1-.68-2.84l7-3.57a1.5,1.5,0,1,1,1.37,2.67l-7,3.57A1.52,1.52,0,0,1,719.66,505.17Zm14-7.15a1.5,1.5,0,0,1-.69-2.83l7-3.57a1.5,1.5,0,1,1,1.36,2.67l-7,3.57A1.54,1.54,0,0,1,733.66,498Zm14-7.14A1.5,1.5,0,0,1,747,488l7-3.57a1.51,1.51,0,0,1,2,.66,1.49,1.49,0,0,1-.65,2l-7,3.58A1.51,1.51,0,0,1,747.65,490.88Zm14-7.15a1.5,1.5,0,0,1-.69-2.83l7-3.57a1.5,1.5,0,1,1,1.36,2.67l-7,3.57A1.54,1.54,0,0,1,761.65,483.73Zm14-7.14a1.5,1.5,0,0,1-.68-2.83l7-3.58a1.51,1.51,0,0,1,2,.66,1.49,1.49,0,0,1-.65,2l-7,3.58A1.51,1.51,0,0,1,775.64,476.59Zm14-7.14a1.5,1.5,0,0,1-.68-2.84l7-3.57a1.5,1.5,0,1,1,1.36,2.67l-7,3.57A1.56,1.56,0,0,1,789.63,469.45Zm14-7.15a1.5,1.5,0,0,1-.68-2.83l7-3.58a1.5,1.5,0,0,1,1.37,2.68l-7,3.57A1.51,1.51,0,0,1,803.63,462.3Zm14-7.14a1.5,1.5,0,0,1-.68-2.84l7-3.57a1.5,1.5,0,1,1,1.36,2.67l-7,3.57A1.44,1.44,0,0,1,817.62,455.16Zm14-7.15a1.49,1.49,0,0,1-.68-2.83l7-3.57a1.5,1.5,0,1,1,1.37,2.67l-7,3.57A1.51,1.51,0,0,1,831.62,448Zm14-7.14a1.5,1.5,0,0,1-.68-2.84l7-3.57a1.5,1.5,0,1,1,1.36,2.67l-7,3.58A1.55,1.55,0,0,1,845.61,440.87Zm14-7.14a1.5,1.5,0,0,1-.68-2.84l7-3.57a1.5,1.5,0,1,1,1.37,2.67l-7,3.57A1.52,1.52,0,0,1,859.61,433.73Z"/><path class="cls-6" d="M877.17,428.76a1.5,1.5,0,0,1-1.5-1.5v-1.55l-1.39.71a1.5,1.5,0,0,1-1.36-2.67l3.56-1.82A1.51,1.51,0,0,1,878,422a1.53,1.53,0,0,1,.72,1.28v4A1.5,1.5,0,0,1,877.17,428.76Z"/><path class="cls-6" d="M877.17,485.82a1.5,1.5,0,0,1-1.5-1.5v-7.14a1.5,1.5,0,1,1,3,0v7.14A1.51,1.51,0,0,1,877.17,485.82Zm0-14.27a1.5,1.5,0,0,1-1.5-1.5v-7.13a1.5,1.5,0,1,1,3,0v7.13A1.5,1.5,0,0,1,877.17,471.55Zm0-14.26a1.5,1.5,0,0,1-1.5-1.5v-7.13a1.5,1.5,0,1,1,3,0v7.13A1.5,1.5,0,0,1,877.17,457.29Zm0-14.26a1.5,1.5,0,0,1-1.5-1.5v-7.14a1.5,1.5,0,0,1,3,0v7.14A1.51,1.51,0,0,1,877.17,443Z"/><path class="cls-6" d="M877.17,497a1.5,1.5,0,0,1-1.5-1.5v-4a1.5,1.5,0,1,1,3,0v4A1.51,1.51,0,0,1,877.17,497Z"/><line class="cls-2" x1="948.4" y1="319.72" x2="948.4" y2="3.47"/><circle class="cls-3" cx="948.24" cy="205.79" r="4.2"/><circle class="cls-3" cx="1157.81" cy="309.29" r="4.2"/><circle class="cls-4" cx="948.24" cy="259.85" r="4.2"/><circle class="cls-3" cx="948.24" cy="87.16" r="4.2"/><circle class="cls-6" cx="948.24" cy="4.2" r="4.2"/><line class="cls-2" x1="386.85" y1="160.16" x2="386.85" y2="13.92"/><circle class="cls-6" cx="386.69" cy="46.24" r="4.2"/><circle class="cls-6" cx="386.69" cy="14.65" r="4.2"/><line class="cls-2" x1="806.91" y1="123.31" x2="806.91" y2="16.76"/><circle class="cls-3" cx="806.75" cy="49.08" r="4.2"/><circle class="cls-3" cx="806.75" cy="17.49" r="4.2"/><path class="cls-3" d="M943.08,86.19a1.55,1.55,0,0,1-.66-.15l-7.17-3.54a1.5,1.5,0,1,1,1.32-2.69l7.18,3.54a1.5,1.5,0,0,1-.67,2.84Zm-14.35-7.07a1.43,1.43,0,0,1-.66-.16l-7.18-3.53a1.51,1.51,0,0,1-.68-2,1.49,1.49,0,0,1,2-.68l7.18,3.53a1.5,1.5,0,0,1-.67,2.85ZM914.38,72a1.55,1.55,0,0,1-.66-.15l-7.18-3.54a1.5,1.5,0,0,1,1.33-2.69l7.18,3.54a1.5,1.5,0,0,1-.67,2.84ZM900,65a1.55,1.55,0,0,1-.66-.15l-7.18-3.54a1.5,1.5,0,0,1,1.33-2.69l7.17,3.53A1.5,1.5,0,0,1,900,65ZM885.68,57.9a1.43,1.43,0,0,1-.66-.16l-7.18-3.53a1.5,1.5,0,0,1,1.33-2.7l7.17,3.54a1.5,1.5,0,0,1-.66,2.85Zm-14.35-7.08a1.59,1.59,0,0,1-.67-.15l-7.17-3.54a1.5,1.5,0,1,1,1.33-2.69L872,48a1.5,1.5,0,0,1-.66,2.84ZM857,43.75a1.59,1.59,0,0,1-.67-.15l-7.17-3.54a1.5,1.5,0,0,1,1.32-2.69l7.18,3.53a1.5,1.5,0,0,1-.66,2.85Zm-14.36-7.07a1.46,1.46,0,0,1-.66-.16L834.79,33a1.5,1.5,0,1,1,1.32-2.69l7.18,3.54a1.5,1.5,0,0,1-.67,2.85ZM828.27,29.6a1.55,1.55,0,0,1-.66-.15l-7.17-3.54a1.5,1.5,0,1,1,1.32-2.69l7.18,3.54a1.5,1.5,0,0,1-.67,2.84Zm-14.35-7.07a1.43,1.43,0,0,1-.66-.16l-7.18-3.53a1.5,1.5,0,0,1,1.33-2.69l7.18,3.53a1.5,1.5,0,0,1-.67,2.85Z"/><path class="cls-6" d="M1157.81,416a1.5,1.5,0,0,1-1.5-1.5v-.27a1.5,1.5,0,0,1,3,0v.27A1.5,1.5,0,0,1,1157.81,416Zm0-8.27a1.5,1.5,0,0,1-1.5-1.5v-8a1.5,1.5,0,0,1,3,0v8A1.5,1.5,0,0,1,1157.81,407.75Zm0-16a1.5,1.5,0,0,1-1.5-1.5v-8a1.5,1.5,0,0,1,3,0v8A1.5,1.5,0,0,1,1157.81,391.75Zm0-16a1.5,1.5,0,0,1-1.5-1.5v-8a1.5,1.5,0,0,1,3,0v8A1.5,1.5,0,0,1,1157.81,375.75Zm0-16a1.5,1.5,0,0,1-1.5-1.5v-8a1.5,1.5,0,0,1,3,0v8A1.5,1.5,0,0,1,1157.81,359.75Zm0-16a1.5,1.5,0,0,1-1.5-1.5v-8a1.5,1.5,0,0,1,3,0v8A1.5,1.5,0,0,1,1157.81,343.75Zm0-16a1.5,1.5,0,0,1-1.5-1.5v-8a1.5,1.5,0,0,1,3,0v8A1.5,1.5,0,0,1,1157.81,327.75Zm0-16a1.5,1.5,0,0,1-1.5-1.5v-.15l-5.36-2.65a1.5,1.5,0,0,1,1.32-2.69l6.21,3.06a1.49,1.49,0,0,1,.83,1.34v1.09A1.5,1.5,0,0,1,1157.81,311.75Zm-13.38-7.68a1.58,1.58,0,0,1-.66-.15l-7.17-3.54a1.5,1.5,0,1,1,1.32-2.69l7.18,3.53a1.5,1.5,0,0,1-.67,2.85ZM1130.08,297a1.43,1.43,0,0,1-.66-.16l-7.17-3.53a1.5,1.5,0,1,1,1.32-2.7l7.18,3.54a1.5,1.5,0,0,1-.67,2.85Zm-14.35-7.08a1.55,1.55,0,0,1-.66-.15l-7.18-3.54a1.5,1.5,0,0,1,1.33-2.69l7.18,3.54a1.5,1.5,0,0,1-.67,2.84Zm-14.35-7.07a1.55,1.55,0,0,1-.66-.15l-7.18-3.54a1.5,1.5,0,1,1,1.33-2.69L1102,280a1.5,1.5,0,0,1-.66,2.85ZM1087,275.78a1.43,1.43,0,0,1-.66-.16l-7.18-3.54a1.5,1.5,0,0,1,1.33-2.69l7.17,3.54a1.5,1.5,0,0,1-.66,2.85Zm-14.35-7.08a1.52,1.52,0,0,1-.66-.15l-7.18-3.54a1.5,1.5,0,0,1,1.33-2.69l7.17,3.54a1.5,1.5,0,0,1-.66,2.84Zm-14.35-7.07a1.47,1.47,0,0,1-.67-.16l-7.17-3.53a1.5,1.5,0,0,1-.68-2,1.48,1.48,0,0,1,2-.68l7.18,3.53a1.5,1.5,0,0,1-.66,2.85ZM1044,254.56a1.46,1.46,0,0,1-.66-.16l-7.17-3.54a1.5,1.5,0,1,1,1.32-2.69l7.18,3.54a1.5,1.5,0,0,1-.67,2.85Zm-14.35-7.08a1.55,1.55,0,0,1-.66-.15l-7.17-3.54a1.5,1.5,0,1,1,1.32-2.69l7.18,3.54a1.5,1.5,0,0,1-.67,2.84Zm-14.35-7.07a1.43,1.43,0,0,1-.66-.16l-7.18-3.53a1.5,1.5,0,0,1,1.33-2.7l7.18,3.54a1.5,1.5,0,0,1-.67,2.85Zm-14.35-7.08a1.55,1.55,0,0,1-.66-.15l-7.18-3.54a1.5,1.5,0,0,1,1.33-2.69l7.17,3.54a1.49,1.49,0,0,1-.66,2.84Zm-14.35-7.07a1.55,1.55,0,0,1-.66-.15l-7.18-3.54a1.5,1.5,0,0,1,1.33-2.69l7.17,3.53a1.5,1.5,0,0,1-.66,2.85Zm-14.35-7.07a1.4,1.4,0,0,1-.66-.16l-7.18-3.54a1.5,1.5,0,0,1,1.33-2.69l7.17,3.54a1.5,1.5,0,0,1-.66,2.85Zm-14.35-7.08a1.59,1.59,0,0,1-.67-.15L950,208.42a1.5,1.5,0,0,1,1.32-2.69l7.18,3.54a1.5,1.5,0,0,1-.66,2.84Z"/><path class="cls-3" d="M1086,436.08a1.45,1.45,0,0,1-.67-.17l-.81-.41a1.5,1.5,0,1,1,1.36-2.67l.8.41a1.5,1.5,0,0,1-.68,2.84Zm-7.94-4a1.44,1.44,0,0,1-.67-.16l-7.14-3.62a1.5,1.5,0,0,1,1.36-2.68l7.13,3.63a1.5,1.5,0,0,1-.68,2.83Zm-14.26-7.24a1.51,1.51,0,0,1-.68-.16L1056,421a1.5,1.5,0,1,1,1.36-2.67l7.13,3.62a1.5,1.5,0,0,1-.68,2.84Zm-14.27-7.25a1.51,1.51,0,0,1-.68-.16l-7.13-3.62a1.5,1.5,0,0,1,1.36-2.68l7.13,3.63a1.5,1.5,0,0,1-.68,2.83Zm-14.26-7.24a1.51,1.51,0,0,1-.68-.16l-7.13-3.63a1.5,1.5,0,0,1,1.35-2.67l7.14,3.62a1.5,1.5,0,0,1-.68,2.84ZM1021,403.06a1.51,1.51,0,0,1-.68-.16l-7.13-3.62a1.5,1.5,0,0,1,1.36-2.68l7.13,3.63a1.5,1.5,0,0,1-.68,2.83Zm-14.27-7.24a1.47,1.47,0,0,1-.67-.16L998.91,392a1.5,1.5,0,0,1,1.36-2.68l7.13,3.62a1.5,1.5,0,0,1-.68,2.84Zm-14.26-7.25a1.51,1.51,0,0,1-.68-.16l-7.13-3.62a1.5,1.5,0,0,1,1.36-2.68l7.13,3.63a1.5,1.5,0,0,1-.68,2.83Z"/><polyline class="cls-2" points="878.76 760.32 808.34 724.58 737.92 760.32"/><line class="cls-2" x1="808.34" y1="635.24" x2="808.34" y2="724.58"/><polygon class="cls-2" points="878.76 760.44 878.76 670.99 808.34 706.73 808.34 796.18 878.76 760.44"/><polygon class="cls-2" points="737.92 760.44 737.92 670.99 808.34 706.73 808.34 796.18 737.92 760.44"/><polygon class="cls-2" points="737.92 670.99 808.34 706.73 878.76 670.99 808.34 635.25 737.92 670.99"/><polygon class="cls-3" points="782.77 693.57 878.76 670.8 850.42 656.42 754.44 679.19 782.77 693.57"/><polygon class="cls-3" points="808.34 635.25 756.45 661.58 827.18 644.81 808.34 635.25"/><polygon class="cls-3" points="742.66 762.85 766.5 774.95 801.17 703.09 777.34 690.99 742.66 762.85"/><polygon class="cls-3" points="737.92 720.75 757.21 680.78 749.13 676.68 737.92 700.97 737.92 720.75"/><polygon class="cls-3" points="808.34 749.64 878.76 729.4 878.76 715.72 808.34 735.96 808.34 749.64"/><polygon class="cls-3" points="808.34 727.9 878.76 707.66 878.76 686.49 808.34 706.73 808.34 727.9"/></g></g></svg>